<svg height="512" viewBox="0 0 64 64" width="512" xmlns="http://www.w3.org/2000/svg"><circle cx="32" cy="32" r="1"/><path d="m49 43v-22h-1a5.006 5.006 0 0 1 -5-5h-22a5.006 5.006 0 0 1 -5 5v22a5.006 5.006 0 0 1 5 5h22a5.006 5.006 0 0 1 5-5zm-7-2a5.006 5.006 0 0 1 -5 5h-10a5.006 5.006 0 0 1 -5-5v-10a5.009 5.009 0 0 1 4-4.9v-2.1a6 6 0 0 1 12 0v2.1a5.009 5.009 0 0 1 4 4.9z"/><path d="m37 28h-10a3 3 0 0 0 -3 3v10a3 3 0 0 0 3 3h10a3 3 0 0 0 3-3v-10a3 3 0 0 0 -3-3zm-2 14h-2v1h-2v-8.184a3 3 0 1 1 2 0v2.184h2v2h-2v.995l2 .005z"/><path d="m36 24a4 4 0 0 0 -8 0v2h8z"/><circle cx="15" cy="49" r="1"/><path d="m54 13a3 3 0 0 0 -3-3h-38a3 3 0 0 0 -3 3v38a3 3 0 0 0 3 3h38a3 3 0 0 0 3-3zm-39-1a3 3 0 1 1 -3 3 3 3 0 0 1 3-3zm0 40a3 3 0 1 1 3-3 3 3 0 0 1 -3 3zm30-4v1a1 1 0 0 1 -1 1h-24a1 1 0 0 1 -1-1v-1a3 3 0 0 0 -3-3h-1a1 1 0 0 1 -1-1v-24a1 1 0 0 1 1-1h1a3 3 0 0 0 3-3v-1a1 1 0 0 1 1-1h24a1 1 0 0 1 1 1v1a3 3 0 0 0 3 3h2a1 1 0 0 1 1 1v24a1 1 0 0 1 -1 1h-2a3 3 0 0 0 -3 3zm4 4a3 3 0 1 1 3-3 3 3 0 0 1 -3 3zm0-34a3 3 0 1 1 3-3 3 3 0 0 1 -3 3z"/><circle cx="49" cy="49" r="1"/><circle cx="49" cy="15" r="1"/><circle cx="15" cy="15" r="1"/><path d="m33 8h-2v-4a1 1 0 0 1 1-1 1 1 0 0 1 1 1z"/><path d="m41 8h-2v-4a1 1 0 0 1 1-1 1 1 0 0 1 1 1z"/><path d="m49 8h-2v-4a1 1 0 0 1 1-1 1 1 0 0 1 1 1z"/><path d="m25 8h-2v-4a1 1 0 0 1 1-1 1 1 0 0 1 1 1z"/><path d="m17 8h-2v-4a1 1 0 0 1 1-1 1 1 0 0 1 1 1z"/><path d="m32 61a1 1 0 0 1 -1-1v-4h2v4a1 1 0 0 1 -1 1z"/><path d="m40 61a1 1 0 0 1 -1-1v-4h2v4a1 1 0 0 1 -1 1z"/><path d="m48 61a1 1 0 0 1 -1-1v-4h2v4a1 1 0 0 1 -1 1z"/><path d="m24 61a1 1 0 0 1 -1-1v-4h2v4a1 1 0 0 1 -1 1z"/><path d="m16 61a1 1 0 0 1 -1-1v-4h2v4a1 1 0 0 1 -1 1z"/><path d="m60 33h-4v-2h4a1 1 0 0 1 1 1 1 1 0 0 1 -1 1z"/><path d="m60 25h-4v-2h4a1 1 0 0 1 1 1 1 1 0 0 1 -1 1z"/><path d="m60 17h-4v-2h4a1 1 0 0 1 1 1 1 1 0 0 1 -1 1z"/><path d="m60 41h-4v-2h4a1 1 0 0 1 1 1 1 1 0 0 1 -1 1z"/><path d="m60 49h-4v-2h4a1 1 0 0 1 1 1 1 1 0 0 1 -1 1z"/><path d="m8 33h-4a1 1 0 0 1 -1-1 1 1 0 0 1 1-1h4z"/><path d="m8 25h-4a1 1 0 0 1 -1-1 1 1 0 0 1 1-1h4z"/><path d="m8 17h-4a1 1 0 0 1 -1-1 1 1 0 0 1 1-1h4z"/><path d="m8 41h-4a1 1 0 0 1 -1-1 1 1 0 0 1 1-1h4z"/><path d="m8 49h-4a1 1 0 0 1 -1-1 1 1 0 0 1 1-1h4z"/></svg>